<?xml version="1.0" encoding="utf-8"?>
<svg viewBox="0 0 500 500" xmlns="http://www.w3.org/2000/svg">
  <defs>
    <clipPath id="clip-path">
      <circle height="500&quot; r=&quot;230" r="230" cx="250" cy="250"/>
    </clipPath>
  </defs>
  <g style="clip-path: url(#clip-path)">
    <path d="M277,212L351,259L359,155Z" fill="#6e76b1" stroke="#6e76b1" stroke-width="1.51"/>
    <path d="M351,259L415,215L359,155Z" fill="#7384b8" stroke="#7384b8" stroke-width="1.51"/>
    <path d="M415,215L432,201L359,155Z" fill="#778cc0" stroke="#778cc0" stroke-width="1.51"/>
    <path d="M359,155L238,125L277,212Z" fill="#6b6cb2" stroke="#6b6cb2" stroke-width="1.51"/>
    <path d="M351,259L473,247L415,215Z" fill="#768eb9" stroke="#768eb9" stroke-width="1.51"/>
    <path d="M415,215L473,247L432,201Z" fill="#7a97c1" stroke="#7a97c1" stroke-width="1.51"/>
    <path d="M218,302L354,333L351,259Z" fill="#707dae" stroke="#707dae" stroke-width="1.51"/>
    <path d="M354,333L473,247L351,259Z" fill="#7791b9" stroke="#7791b9" stroke-width="1.51"/>
    <path d="M277,212L218,302L351,259Z" fill="#6969a4" stroke="#6969a4" stroke-width="1.51"/>
    <path d="M172,249L218,302L277,212Z" fill="#6560a2" stroke="#6560a2" stroke-width="1.51"/>
    <path d="M238,125L172,249L277,212Z" fill="#655fa9" stroke="#655fa9" stroke-width="1.51"/>
    <path d="M287,45L204,116L238,125Z" fill="#6661b7" stroke="#6661b7" stroke-width="1.51"/>
    <path d="M359,155L287,45L238,125Z" fill="#6b6dbc" stroke="#6b6dbc" stroke-width="1.51"/>
    <path d="M432,201L433,82L359,155Z" fill="#788fc8" stroke="#788fc8" stroke-width="1.51"/>
    <path d="M483,87L433,82L432,201Z" fill="#7f97d0" stroke="#7f97d0" stroke-width="1.51"/>
    <path d="M433,82L374,44L359,155Z" fill="#778ace" stroke="#778ace" stroke-width="1.51"/>
    <path d="M374,44L287,45L359,155Z" fill="#727bc7" stroke="#727bc7" stroke-width="1.51"/>
    <path d="M204,116L172,249L238,125Z" fill="#6660b2" stroke="#6660b2" stroke-width="1.51"/>
    <path d="M296,399L417,371L354,333Z" fill="#7ca0c2" stroke="#7ca0c2" stroke-width="1.51"/>
    <path d="M354,333L417,371L473,247Z" fill="#7da3c3" stroke="#7da3c3" stroke-width="1.51"/>
    <path d="M218,302L296,399L354,333Z" fill="#7385b3" stroke="#7385b3" stroke-width="1.51"/>
    <path d="M172,249L197,337L218,302Z" fill="#6a6dad" stroke="#6a6dad" stroke-width="1.51"/>
    <path d="M433,82L390,-27L374,44Z" fill="#7489c8" stroke="#7489c8" stroke-width="1.51"/>
    <path d="M529,144L483,87L432,201Z" fill="#898fc7" stroke="#898fc7" stroke-width="1.51"/>
    <path d="M221,399L296,399L218,302Z" fill="#7181b1" stroke="#7181b1" stroke-width="1.51"/>
    <path d="M417,371L466,356L473,247Z" fill="#84abc6" stroke="#84abc6" stroke-width="1.51"/>
    <path d="M590,263L529,144L473,247Z" fill="#9581b1" stroke="#9581b1" stroke-width="1.51"/>
    <path d="M473,247L529,144L432,201Z" fill="#878fbe" stroke="#878fbe" stroke-width="1.51"/>
    <path d="M204,116L130,168L172,249Z" fill="#6660b5" stroke="#6660b5" stroke-width="1.51"/>
    <path d="M172,249L104,315L197,337Z" fill="#6c6fb4" stroke="#6c6fb4" stroke-width="1.51"/>
    <path d="M67,137L130,168L204,116Z" fill="#6661c1" stroke="#6661c1" stroke-width="1.51"/>
    <path d="M374,44L308,-10L287,45Z" fill="#6a71b7" stroke="#6a71b7" stroke-width="1.51"/>
    <path d="M287,45L246,-33L204,116Z" fill="#645fb4" stroke="#645fb4" stroke-width="1.51"/>
    <path d="M390,-27L308,-10L374,44Z" fill="#6977b1" stroke="#6977b1" stroke-width="1.51"/>
    <path d="M197,337L221,399L218,302Z" fill="#707bb3" stroke="#707bb3" stroke-width="1.51"/>
    <path d="M192,406L221,399L197,337Z" fill="#7485ba" stroke="#7485ba" stroke-width="1.51"/>
    <path d="M130,168L98,209L172,249Z" fill="#6660b6" stroke="#6660b6" stroke-width="1.51"/>
    <path d="M523,16L390,-27L433,82Z" fill="#7992c9" stroke="#7992c9" stroke-width="1.51"/>
    <path d="M226,503L326,513L296,399Z" fill="#8799bd" stroke="#8799bd" stroke-width="1.51"/>
    <path d="M104,315L192,406L197,337Z" fill="#717ebc" stroke="#717ebc" stroke-width="1.51"/>
    <path d="M303,-122L246,-33L308,-10Z" fill="#575889" stroke="#575889" stroke-width="1.51"/>
    <path d="M308,-10L246,-33L287,45Z" fill="#6060a4" stroke="#6060a4" stroke-width="1.51"/>
    <path d="M130,168L67,137L98,209Z" fill="#6661c2" stroke="#6661c2" stroke-width="1.51"/>
    <path d="M98,209L104,315L172,249Z" fill="#6762b2" stroke="#6762b2" stroke-width="1.51"/>
    <path d="M466,356L590,263L473,247Z" fill="#9392b7" stroke="#9392b7" stroke-width="1.51"/>
    <path d="M483,87L523,16L433,82Z" fill="#8b91d5" stroke="#8b91d5" stroke-width="1.51"/>
    <path d="M617,86L523,16L483,87Z" fill="#9c81ca" stroke="#9c81ca" stroke-width="1.51"/>
    <path d="M617,86L483,87L529,144Z" fill="#9b80c2" stroke="#9b80c2" stroke-width="1.51"/>
    <path d="M54,118L67,137L204,116Z" fill="#6662c8" stroke="#6662c8" stroke-width="1.51"/>
    <path d="M98,209L-35,210L104,315Z" fill="#6561bb" stroke="#6561bb" stroke-width="1.51"/>
    <path d="M326,513L449,455L296,399Z" fill="#88b4cb" stroke="#88b4cb" stroke-width="1.51"/>
    <path d="M296,399L449,455L417,371Z" fill="#83b6cd" stroke="#83b6cd" stroke-width="1.51"/>
    <path d="M417,371L449,455L466,356Z" fill="#87c2d3" stroke="#87c2d3" stroke-width="1.51"/>
    <path d="M466,356L606,374L590,263Z" fill="#a394b6" stroke="#a394b6" stroke-width="1.51"/>
    <path d="M67,137L-35,210L98,209Z" fill="#6460be" stroke="#6460be" stroke-width="1.51"/>
    <path d="M119,-28L54,118L204,116Z" fill="#6663ce" stroke="#6663ce" stroke-width="1.51"/>
    <path d="M449,455L534,420L466,356Z" fill="#97bfd0" stroke="#97bfd0" stroke-width="1.51"/>
    <path d="M590,263L623,142L529,144Z" fill="#a275ae" stroke="#a275ae" stroke-width="1.51"/>
    <path d="M449,455L547,464L534,420Z" fill="#a5c1ce" stroke="#a5c1ce" stroke-width="1.51"/>
    <path d="M226,503L296,399L221,399Z" fill="#7894bb" stroke="#7894bb" stroke-width="1.51"/>
    <path d="M623,142L617,86L529,144Z" fill="#a673b6" stroke="#a673b6" stroke-width="1.51"/>
    <path d="M390,-27L386,-100L308,-10Z" fill="#62709a" stroke="#62709a" stroke-width="1.51"/>
    <path d="M527,-78L386,-100L390,-27Z" fill="#64819a" stroke="#64819a" stroke-width="1.51"/>
    <path d="M527,-78L390,-27L523,16Z" fill="#7981a8" stroke="#7981a8" stroke-width="1.51"/>
    <path d="M192,406L201,491L221,399Z" fill="#7995c2" stroke="#7995c2" stroke-width="1.51"/>
    <path d="M104,315L120,433L192,406Z" fill="#7688c5" stroke="#7688c5" stroke-width="1.51"/>
    <path d="M6,401L120,433L104,315Z" fill="#7689d0" stroke="#7689d0" stroke-width="1.51"/>
    <path d="M120,433L201,491L192,406Z" fill="#7c98c9" stroke="#7c98c9" stroke-width="1.51"/>
    <path d="M201,491L226,503L221,399Z" fill="#8292be" stroke="#8292be" stroke-width="1.51"/>
    <path d="M246,-33L119,-28L204,116Z" fill="#605bb1" stroke="#605bb1" stroke-width="1.51"/>
    <path d="M127,-36L119,-28L246,-33Z" fill="#58539c" stroke="#58539c" stroke-width="1.51"/>
    <path d="M139,-64L127,-36L246,-33Z" fill="#565194" stroke="#565194" stroke-width="1.51"/>
    <path d="M534,420L606,374L466,356Z" fill="#a5a9c1" stroke="#a5a9c1" stroke-width="1.51"/>
    <path d="M590,263L606,374L623,142Z" fill="#a570a1" stroke="#a570a1" stroke-width="1.51"/>
    <path d="M442,526L475,498L449,455Z" fill="#a2c2d0" stroke="#a2c2d0" stroke-width="1.51"/>
    <path d="M534,420L570,447L606,374Z" fill="#b2aac0" stroke="#b2aac0" stroke-width="1.51"/>
    <path d="M386,-100L303,-122L308,-10Z" fill="#596285" stroke="#596285" stroke-width="1.51"/>
    <path d="M127,-36L45,-99L119,-28Z" fill="#56519b" stroke="#56519b" stroke-width="1.51"/>
    <path d="M271,-122L139,-64L246,-33Z" fill="#514c7f" stroke="#514c7f" stroke-width="1.51"/>
    <path d="M303,-122L271,-122L246,-33Z" fill="#4f4f75" stroke="#4f4f75" stroke-width="1.51"/>
    <path d="M475,498L547,464L449,455Z" fill="#a7bfcd" stroke="#a7bfcd" stroke-width="1.51"/>
    <path d="M547,464L570,447L534,420Z" fill="#b0b7c7" stroke="#b0b7c7" stroke-width="1.51"/>
    <path d="M475,498L501,552L547,464Z" fill="#b5b3c4" stroke="#b5b3c4" stroke-width="1.51"/>
    <path d="M326,513L442,526L449,455Z" fill="#9cbacb" stroke="#9cbacb" stroke-width="1.51"/>
    <path d="M355,560L442,526L326,513Z" fill="#a3a7c1" stroke="#a3a7c1" stroke-width="1.51"/>
    <path d="M605,-12L527,-78L523,16Z" fill="#8d709e" stroke="#8d709e" stroke-width="1.51"/>
    <path d="M386,-100L629,-124L303,-122Z" fill="#5b7983" stroke="#5b7983" stroke-width="1.51"/>
    <path d="M617,86L605,-12L523,16Z" fill="#a071b4" stroke="#a071b4" stroke-width="1.51"/>
    <path d="M-36,151L-35,210L67,137Z" fill="#5d58ab" stroke="#5d58ab" stroke-width="1.51"/>
    <path d="M119,-28L18,42L54,118Z" fill="#6361d2" stroke="#6361d2" stroke-width="1.51"/>
    <path d="M37,-16L18,42L119,-28Z" fill="#5d5abc" stroke="#5d5abc" stroke-width="1.51"/>
    <path d="M251,562L355,560L326,513Z" fill="#9f90b4" stroke="#9f90b4" stroke-width="1.51"/>
    <path d="M226,503L251,562L326,513Z" fill="#9487b0" stroke="#9487b0" stroke-width="1.51"/>
    <path d="M197,560L251,562L226,503Z" fill="#977faf" stroke="#977faf" stroke-width="1.51"/>
    <path d="M197,560L226,503L201,491Z" fill="#9285b5" stroke="#9285b5" stroke-width="1.51"/>
    <path d="M-36,151L67,137L54,118Z" fill="#625ebf" stroke="#625ebf" stroke-width="1.51"/>
    <path d="M45,-99L37,-16L119,-28Z" fill="#5652a3" stroke="#5652a3" stroke-width="1.51"/>
    <path d="M-111,172L-36,151L-120,81Z" fill="#504a85" stroke="#504a85" stroke-width="1.51"/>
    <path d="M18,42L-36,151L54,118Z" fill="#5f5bbb" stroke="#5f5bbb" stroke-width="1.51"/>
    <path d="M-35,210L-13,345L104,315Z" fill="#6467ae" stroke="#6467ae" stroke-width="1.51"/>
    <path d="M76,499L197,560L201,491Z" fill="#9386be" stroke="#9386be" stroke-width="1.51"/>
    <path d="M76,499L201,491L120,433Z" fill="#8791ca" stroke="#8791ca" stroke-width="1.51"/>
    <path d="M-13,345L6,401L104,315Z" fill="#6e7bc0" stroke="#6e7bc0" stroke-width="1.51"/>
    <path d="M427,624L501,552L442,526Z" fill="#b8b0c2" stroke="#b8b0c2" stroke-width="1.51"/>
    <path d="M442,526L501,552L475,498Z" fill="#b1b6c6" stroke="#b1b6c6" stroke-width="1.51"/>
    <path d="M547,464L563,550L570,447Z" fill="#bdaabe" stroke="#bdaabe" stroke-width="1.51"/>
    <path d="M32,487L76,499L120,433Z" fill="#8892d3" stroke="#8892d3" stroke-width="1.51"/>
    <path d="M76,499L51,621L197,560Z" fill="#a07bbf" stroke="#a07bbf" stroke-width="1.51"/>
    <path d="M6,401L32,487L120,433Z" fill="#7c99d9" stroke="#7c99d9" stroke-width="1.51"/>
    <path d="M-87,419L32,487L6,401Z" fill="#6e8bb4" stroke="#6e8bb4" stroke-width="1.51"/>
    <path d="M427,624L563,550L501,552Z" fill="#c4a3ba" stroke="#c4a3ba" stroke-width="1.51"/>
    <path d="M501,552L563,550L547,464Z" fill="#c1a7bc" stroke="#c1a7bc" stroke-width="1.51"/>
    <path d="M570,447L563,550L606,374Z" fill="#bbacc0" stroke="#bbacc0" stroke-width="1.51"/>
    <path d="M139,-64L45,-99L127,-36Z" fill="#544f94" stroke="#544f94" stroke-width="1.51"/>
    <path d="M-85,29L-36,151L18,42Z" fill="#5854a9" stroke="#5854a9" stroke-width="1.51"/>
    <path d="M271,-122L45,-99L139,-64Z" fill="#4e497f" stroke="#4e497f" stroke-width="1.51"/>
    <path d="M355,560L427,624L442,526Z" fill="#b1a8bf" stroke="#b1a8bf" stroke-width="1.51"/>
    <path d="M251,562L427,624L355,560Z" fill="#ac91b2" stroke="#ac91b2" stroke-width="1.51"/>
    <path d="M51,621L427,624L251,562Z" fill="#a36ea1" stroke="#a36ea1" stroke-width="1.51"/>
    <path d="M617,86L629,-124L605,-12Z" fill="#9c5f96" stroke="#9c5f96" stroke-width="1.51"/>
    <path d="M605,-12L629,-124L527,-78Z" fill="#895f81" stroke="#895f81" stroke-width="1.51"/>
    <path d="M527,-78L629,-124L386,-100Z" fill="#736d7f" stroke="#736d7f" stroke-width="1.51"/>
    <path d="M303,-122L629,-124L271,-122Z" fill="#566d7a" stroke="#566d7a" stroke-width="1.51"/>
    <path d="M623,142L629,-124L617,86Z" fill="#a966af" stroke="#a966af" stroke-width="1.51"/>
    <path d="M-85,29L18,42L37,-16Z" fill="#5651a3" stroke="#5651a3" stroke-width="1.51"/>
    <path d="M-36,151L-111,172L-35,210Z" fill="#544e8b" stroke="#544e8b" stroke-width="1.51"/>
    <path d="M-35,210L-115,329L-13,345Z" fill="#595b8b" stroke="#595b8b" stroke-width="1.51"/>
    <path d="M-13,345L-87,419L6,401Z" fill="#677aa5" stroke="#677aa5" stroke-width="1.51"/>
    <path d="M-111,172L-120,217L-35,210Z" fill="#4f497b" stroke="#4f497b" stroke-width="1.51"/>
    <path d="M-111,172L-120,81L-120,217Z" fill="#4a4674" stroke="#4a4674" stroke-width="1.51"/>
    <path d="M-102,-94L-85,29L37,-16Z" fill="#49447a" stroke="#49447a" stroke-width="1.51"/>
    <path d="M-120,217L-115,329L-35,210Z" fill="#4d4973" stroke="#4d4973" stroke-width="1.51"/>
    <path d="M-85,29L-120,81L-36,151Z" fill="#524c90" stroke="#524c90" stroke-width="1.51"/>
    <path d="M-115,329L-87,419L-13,345Z" fill="#5d6b8d" stroke="#5d6b8d" stroke-width="1.51"/>
    <path d="M45,-99L-14,-123L37,-16Z" fill="#4c4783" stroke="#4c4783" stroke-width="1.51"/>
    <path d="M-85,29L-102,-94L-120,81Z" fill="#464170" stroke="#464170" stroke-width="1.51"/>
    <path d="M271,-122L-14,-123L45,-99Z" fill="#4c477e" stroke="#4c477e" stroke-width="1.51"/>
    <path d="M629,-124L-14,-123L271,-122Z" fill="#4c506a" stroke="#4c506a" stroke-width="1.51"/>
    <path d="M197,560L51,621L251,562Z" fill="#a275b1" stroke="#a275b1" stroke-width="1.51"/>
    <path d="M32,487L51,621L76,499Z" fill="#9a81c8" stroke="#9a81c8" stroke-width="1.51"/>
    <path d="M-42,559L51,621L32,487Z" fill="#9676b1" stroke="#9676b1" stroke-width="1.51"/>
    <path d="M-104,502L-42,559L32,487Z" fill="#81779d" stroke="#81779d" stroke-width="1.51"/>
    <path d="M-14,-123L-102,-94L37,-16Z" fill="#45406d" stroke="#45406d" stroke-width="1.51"/>
    <path d="M-87,419L-104,502L32,487Z" fill="#717f9e" stroke="#717f9e" stroke-width="1.51"/>
    <path d="M-115,329L-104,502L-87,419Z" fill="#5c7686" stroke="#5c7686" stroke-width="1.51"/>
    <path d="M-42,559L-85,576L51,621Z" fill="#936797" stroke="#936797" stroke-width="1.51"/>
    <path d="M-104,502L-85,576L-42,559Z" fill="#7f6985" stroke="#7f6985" stroke-width="1.51"/>
  </g>
  <g transform="matrix(11.363636, 0, 0, -11.363636, 295.454529, 125)" id="g-1" style="">
    <path id="path-1" style="fill-opacity: 1; fill-rule: nonzero; stroke: none; fill: rgb(255, 255, 255);" d="m 0,0 0,-9 7,0 -11,-13 -11,13 7,0 0,9 8,0 z"/>
  </g>
</svg>